<svg xmlns="http://www.w3.org/2000/svg" viewBox="0 0 96 96" fill="none">
  <defs>
    <linearGradient id="partner-shield-bg" x1="12" y1="8" x2="84" y2="88" gradientUnits="userSpaceOnUse">
      <stop offset="0%" stop-color="#c3e896"/>
      <stop offset="100%" stop-color="#3ea84e"/>
    </linearGradient>
  </defs>
  <circle cx="48" cy="48" r="46" fill="url(#partner-shield-bg)"/>
  <path d="M48 24l16 6v14c0 12-7 19-16 22-9-3-16-10-16-22V30l16-6z" fill="#ffffff"/>
  <path d="M45.2 51.6c0-1.6 1.4-2.5 3.1-2.5 1.5 0 2.7.7 3 1.9M48.3 49.1v-2.4M48.3 60.3v-2.3M45 57.8c.3 1.2 1.6 1.9 3.1 1.9 1.7 0 3.1-.9 3.1-2.5s-1.4-2.1-3.1-2.5c-1.7-.4-3.1-.9-3.1-2.5" stroke="url(#partner-shield-bg)" stroke-width="1.8" stroke-linecap="round" stroke-linejoin="round"/>
</svg>
