<svg id="Layer_1" data-name="Layer 1" xmlns="http://www.w3.org/2000/svg" viewBox="0 0 37.33 37.33"><defs><style>.cls-1{fill:#f72323;}</style></defs><path class="cls-1" d="M26.19,23.91l-2.5-2.5a.24.24,0,0,0-.2-.07.27.27,0,0,0-.18.11,3.71,3.71,0,0,1-.23.32L22.26,21A6.35,6.35,0,1,0,21,22.27l.81.81-.32.23a.27.27,0,0,0-.11.18.24.24,0,0,0,.07.2l2.5,2.5a1.36,1.36,0,0,0,1.95,0l.33-.33A1.38,1.38,0,0,0,26.19,23.91Zm-15-6.78A5.91,5.91,0,1,1,17.14,23,5.91,5.91,0,0,1,11.23,17.13ZM21.34,22a5.85,5.85,0,0,0,.61-.61l.82.82a7,7,0,0,1-.61.61Zm2.21,0,.69.69a6.13,6.13,0,0,1-1.59,1.58L22,23.55A6.77,6.77,0,0,0,23.55,22Zm2.29,3.54-.33.34a.89.89,0,0,1-1.25,0L23,24.6A6.67,6.67,0,0,0,24.6,23l1.24,1.25A.88.88,0,0,1,25.84,25.51Z"/><path class="cls-1" d="M17.14,12.46a4.68,4.68,0,1,0,4.67,4.67A4.68,4.68,0,0,0,17.14,12.46Zm0,8.86a4.19,4.19,0,1,1,4.18-4.19A4.2,4.2,0,0,1,17.14,21.32Z"/><path class="cls-1" d="M17.14,13.69a.25.25,0,1,0,0,.49,3,3,0,0,1,2.95,2.95,2.85,2.85,0,0,1-.16,1,.25.25,0,0,0,.16.31l.08,0a.26.26,0,0,0,.23-.17,3.5,3.5,0,0,0,.18-1.12A3.44,3.44,0,0,0,17.14,13.69Z"/></svg>